<svg width="322" height="322" viewBox="0 0 322 322" fill="none" xmlns="http://www.w3.org/2000/svg">
<circle cx="161" cy="161" r="161" fill="#135A9B"/>
<circle cx="161" cy="157" r="145" fill="#6291D9"/>
<ellipse cx="161" cy="157.5" rx="134" ry="129.5" fill="#9BC2FC"/>
<rect width="93.1878" height="93.1875" rx="27.5251" transform="matrix(0.7943 0.607526 -0.607536 0.794292 152.614 43)" fill="#EF8C67"/>
<path d="M153.297 121.866C159.833 127.38 166.575 127.286 170.001 119.985" stroke="black" stroke-width="2.9282" stroke-linecap="round"/>
<path d="M155.844 107.307C163.296 105.318 162.921 113.41 161.997 115.821C161.072 118.232 152.453 127.299 138.946 116.999C153.56 119.593 148.392 109.295 155.844 107.307Z" fill="#6D5F5A"/>
<path d="M167.013 106.227C159.318 105.706 161.239 113.575 162.609 115.764C163.98 117.953 174.179 125.196 185.457 112.495C171.614 117.847 174.708 106.748 167.013 106.227Z" fill="#6D5F5A"/>
<ellipse cx="143.658" cy="97.3782" rx="11.3628" ry="11.3626" fill="black"/>
<ellipse cx="146.001" cy="95.7934" rx="4.31001" ry="4.30995" fill="white"/>
<ellipse cx="175.583" cy="93.589" rx="9.46896" ry="9.46883" fill="black"/>
<ellipse cx="176.901" cy="90.9774" rx="3.59167" ry="3.59163" fill="white"/>
<path d="M191.502 93.5884C197.995 93.5884 205.301 90.0714 200.431 80.0615" stroke="black" stroke-width="1.75692" stroke-linecap="round" stroke-linejoin="round" stroke-dasharray="4.1 4.1"/>
<rect x="159.937" y="79.0707" width="30.6635" height="29.0399" rx="14.5199" fill="white" fill-opacity="0.3" stroke="black" stroke-width="2.34256"/>
<path d="M138.252 187.737L148.803 156.625L151.508 159.33C149.434 170.422 146.53 191.633 151.508 187.737C157.731 182.867 160.436 193.418 158.001 195.853C155.566 198.288 148.803 196.124 141.499 195.853C135.655 195.637 136.9 190.352 138.252 187.737Z" fill="#EF8C67"/>
<path d="M162.607 187.739L173.158 156.627L175.863 159.332C173.789 170.424 170.885 191.635 175.863 187.739C182.085 182.869 184.791 193.42 182.356 195.855C179.921 198.29 173.158 196.126 165.853 195.855C160.01 195.639 161.254 190.354 162.607 187.739Z" fill="#EF8C67"/>
<path d="M219.784 144.234C221.359 140.066 208.462 130.919 201.816 126.867L199.355 128.108C204.934 133.235 214.418 140.711 211.662 139.52C208.216 138.032 207.724 144.73 210.677 146.963C212.056 148.005 217.815 149.444 219.784 144.234Z" fill="#EF8C67"/>
<path d="M131.07 127.046L154.695 132.047C156.247 133.943 159.524 133.771 160.904 133.081L186.599 128.425L186.944 159.809L161.593 164.119C160.271 164.924 156.972 166.051 154.351 164.119L133.294 161.793C132.584 161.77 131.987 161.709 131.543 161.6C130.857 161.431 130.536 161.149 130.723 160.717L130.725 148.773L131.07 127.046Z" fill="#6596A4"/>
<path d="M141.203 123.08L131.373 127.219C154.412 139.496 177.302 133.484 185.867 128.943L177.072 123.942C175.831 122.011 164.483 128.655 158.965 132.219C158.551 130.702 146.951 125.494 141.203 123.08Z" fill="#F9F9F9"/>
<path d="M140.648 144.452C140.55 145.415 131.089 141.566 125.769 139.582L128.203 142.828C131.991 147.969 143.895 151.756 147.141 150.674C150.388 149.592 152.462 145.985 151.47 144.452C151.741 143.64 147.682 139.582 145.789 140.394C143.895 141.205 141.063 140.394 140.648 144.452Z" fill="#EF8C67"/>
<rect width="2.26124" height="41.2967" rx="1.13062" transform="matrix(0.954284 0.298902 -0.298909 0.954282 221.438 106.116)" fill="#6B4040"/>
<path d="M220.689 79.1536L221.059 78.7778C221.343 78.5814 221.615 78.383 221.877 78.1824C222.151 77.9725 222.428 77.7511 222.707 77.5183C222.558 77.6212 222.394 77.7449 222.214 77.8893C222.038 78.0109 221.862 78.1325 221.686 78.254L220.997 78.731C220.88 78.8516 220.795 78.9306 220.741 78.968C220.578 79.0802 220.433 79.1009 220.304 79.0302L220.257 78.7026C220.555 78.4968 220.76 78.3451 220.872 78.2474C220.984 78.1497 221.09 78.0567 221.189 77.9684L221.418 78.1697C221.601 77.9431 221.803 77.7435 222.024 77.571C222.258 77.3892 222.49 77.2187 222.719 77.0598C222.949 76.9008 223.175 76.735 223.395 76.5625C223.629 76.3806 223.833 76.1696 224.007 75.9295L223.923 75.8078C223.087 76.5655 222.217 77.2576 221.31 77.8842C222.021 77.2929 222.718 76.6813 223.4 76.0493C224.096 75.4081 224.843 74.8116 225.641 74.2598C225.97 74.2724 226.289 74.1712 226.6 73.9561L226.65 74.0715C226.688 74.1256 226.725 74.1797 226.763 74.2338C226.804 74.265 226.848 74.3144 226.895 74.382C226.961 74.4767 226.992 74.5651 226.989 74.6472C226.999 74.72 226.936 74.8032 226.801 74.8967L226.928 75.0792C227.119 75.0668 227.307 75.107 227.491 75.1996C227.679 75.2693 227.829 75.3854 227.941 75.5476C228.044 75.6964 228.054 75.8695 227.971 76.067C227.892 76.2417 227.763 76.4309 227.584 76.6346C227.405 76.8383 227.185 77.0405 226.924 77.241C226.676 77.4323 226.424 77.6167 226.167 77.7944C225.923 77.9628 225.7 78.1171 225.497 78.2574C225.285 78.3841 225.118 78.4896 224.996 78.5738C224.658 78.8076 224.311 79.0575 223.956 79.3235C223.613 79.5802 223.266 79.8301 222.915 80.0733C222.685 80.2323 222.569 80.4121 222.568 80.6128C222.567 80.8135 222.616 81.0293 222.716 81.2602C222.829 81.4817 222.959 81.7121 223.104 81.9513C223.263 82.1812 223.39 82.3934 223.485 82.5879C223.731 82.5973 224.051 82.4961 224.444 82.2841C224.828 82.0587 225.255 81.8234 225.725 81.5782C226.209 81.3236 226.723 81.0982 227.267 80.9019C227.824 80.6963 228.391 80.6045 228.966 80.6266C229.545 80.6259 230.125 80.7847 230.705 81.1032C231.299 81.4123 231.867 81.959 232.409 82.7432C232.933 83.5005 233.239 84.3184 233.327 85.1971C233.429 86.0665 233.361 86.9228 233.125 87.766C232.879 88.5956 232.489 89.3753 231.954 90.1051C231.429 90.8483 230.814 91.4631 230.111 91.9494C229.868 92.1177 229.513 92.3131 229.047 92.5354C228.59 92.7712 228.101 92.9597 227.579 93.1009C227.079 93.2462 226.601 93.3068 226.145 93.2827C225.698 93.2721 225.362 93.1046 225.137 92.78C225.063 92.6718 225.067 92.5486 225.152 92.4104C225.805 92.7185 226.495 92.8207 227.223 92.717C227.942 92.5999 228.601 92.3537 229.201 91.9786C228.605 92.3308 227.968 92.5515 227.29 92.6406C226.589 92.7256 225.928 92.5932 225.306 92.2435L225.493 91.9941C225.36 91.9462 225.234 91.8936 225.114 91.8364C224.985 91.7656 224.87 91.6855 224.768 91.596C224.707 91.4785 224.656 91.3334 224.617 91.1608C224.568 90.9746 224.618 90.8301 224.767 90.7272C225.037 90.5402 225.288 90.4971 225.517 90.5981C225.751 90.6762 226.013 90.7652 226.302 90.8652C226.595 90.9423 226.938 90.9752 227.33 90.9639C227.713 90.9391 228.201 90.721 228.797 90.3095C229.175 90.0476 229.536 89.688 229.88 89.2306C230.237 88.7639 230.522 88.2665 230.737 87.7384C230.955 87.1873 231.078 86.6425 231.105 86.1039C231.123 85.5518 230.996 85.05 230.724 84.5986C230.946 85.0645 231.051 85.5621 231.037 86.0914C231.014 86.6071 230.902 87.1244 230.701 87.6432C230.504 88.1391 230.236 88.6043 229.897 89.0388C229.571 89.4639 229.212 89.8121 228.82 90.0833C228.631 90.2143 228.416 90.3525 228.177 90.4979C227.942 90.6205 227.693 90.7228 227.43 90.8049C227.171 90.864 226.918 90.8889 226.672 90.8794C226.416 90.8564 226.179 90.7601 225.962 90.5905C226.179 90.5001 226.386 90.4373 226.581 90.4021C226.777 90.3668 226.972 90.3315 227.168 90.2963C227.354 90.2475 227.547 90.194 227.747 90.1359C227.937 90.0642 228.147 89.9489 228.377 89.7899L228.681 89.5795C228.776 89.514 228.868 89.4303 228.958 89.3285L229.084 89.511C229.393 89.1774 229.674 88.8032 229.927 88.3884C230.184 87.9507 230.384 87.5027 230.526 87.0442C230.66 86.5721 230.709 86.1084 230.674 85.6529C230.643 85.1746 230.482 84.7258 230.192 84.3067C229.977 83.9956 229.697 83.7496 229.351 83.5685C229.006 83.3874 228.647 83.316 228.274 83.3543L228.297 83.5181C228.588 83.4767 228.886 83.5309 229.189 83.6807C229.506 83.8213 229.749 84.0132 229.917 84.2566C230.395 84.9462 230.591 85.6498 230.508 86.3672C230.445 86.9703 230.243 87.5598 229.902 88.1357C230.008 87.9423 230.103 87.7469 230.186 87.5494C230.317 87.2188 230.396 86.8845 230.422 86.5466C230.462 86.1993 230.447 85.8598 230.377 85.528C230.321 85.1869 230.195 84.8744 229.998 84.5904C229.662 84.1036 229.24 83.8258 228.732 83.757C228.225 83.6881 227.692 83.7268 227.133 83.8732C226.588 84.0102 226.053 84.22 225.529 84.5026C224.996 84.7717 224.532 85.0122 224.139 85.2241C223.863 85.3748 223.608 85.5114 223.373 85.634C223.142 85.7337 222.919 85.7877 222.705 85.7959C222.491 85.8041 222.282 85.7484 222.08 85.6287C221.877 85.5091 221.668 85.2937 221.453 84.9827C221.303 84.7663 221.127 84.4684 220.924 84.0887C220.726 83.6862 220.534 83.279 220.349 82.8672C220.168 82.4324 219.997 82.0112 219.835 81.6035C219.673 81.1959 219.557 80.8558 219.489 80.5833C219.576 80.6229 219.654 80.6193 219.721 80.5725C219.789 80.5257 219.861 80.4857 219.938 80.4525C220.006 80.4057 220.069 80.3818 220.129 80.3808C220.201 80.3705 220.28 80.4261 220.364 80.5478C220.458 80.6831 220.531 80.8323 220.584 80.9956C220.627 81.1453 220.671 81.2951 220.715 81.4449L220.939 81.3794C220.923 81.211 220.904 81.054 220.883 80.9084C220.867 80.7399 220.862 80.5735 220.868 80.4092C220.748 80.352 220.656 80.276 220.59 80.1814C220.487 80.0327 220.439 79.8761 220.445 79.7118C220.456 79.5247 220.417 79.352 220.327 79.194L220.689 79.1536ZM232.917 85.6009C232.866 86.6553 232.601 87.6586 232.12 88.6109C231.648 89.5767 231.015 90.4244 230.22 91.154C231.038 90.4285 231.692 89.5965 232.182 88.6577C232.682 87.7325 232.927 86.7136 232.917 85.6009ZM224.749 78.0854C224.59 78.1748 224.417 78.2849 224.227 78.4159L223.416 78.977C223.525 78.9615 223.729 78.8508 224.026 78.6451C224.242 78.4954 224.454 78.339 224.661 78.1759C224.783 78.0917 224.88 78.0148 224.951 77.9452C224.911 77.9732 224.843 78.02 224.749 78.0854ZM222.157 80.1478L222.188 79.9762L221.295 80.5935L222.157 80.1478ZM229.822 88.2807C229.844 88.2256 229.871 88.1773 229.902 88.1357C229.871 88.1773 229.844 88.2256 229.822 88.2807ZM229.755 88.3571C229.769 88.3478 229.778 88.3317 229.782 88.3088C229.778 88.3317 229.769 88.3478 229.755 88.3571Z" fill="#E338D2"/>
<path d="M197.588 53.5734C196.066 54.1093 195.861 55.8377 195.953 56.7202C195.959 56.7794 195.991 56.8324 196.039 56.8681C196.191 56.9821 196.425 56.8613 196.473 56.6769C196.618 56.1149 197.074 55.6555 197.573 55.3162C198.128 54.9383 198.804 55.3735 198.861 56.0429L199.029 58.0004C199.073 58.5081 198.963 59.0161 198.76 59.4834C198.501 60.0786 198.179 60.9343 197.936 61.9021C197.472 63.7529 199.792 63.1746 200.836 63.0589C201.574 62.9771 200.737 58.6774 200.052 55.7883C199.912 55.2009 200.263 54.6066 200.847 54.4533C201.467 54.2907 202.093 54.6894 202.228 55.3156C202.773 57.8422 203.822 61.537 205.012 62.2491C206.245 62.9871 207.144 60.6922 207.549 59.033C207.629 58.7048 207.405 58.3862 207.072 58.3308C206.679 58.2654 206.295 58.6181 206.077 58.9519C205.891 59.2355 205.563 59.5209 205.012 59.7043C204.052 60.0232 203.541 56.8729 203.343 54.589C203.294 54.0181 203.715 53.5214 204.284 53.4547L204.488 53.4307C204.919 53.3802 205.244 53.0149 205.244 52.5809C205.244 52.0262 204.725 51.6182 204.186 51.753C202.085 52.2794 198.915 53.1064 197.588 53.5734Z" fill="#7C3C3C"/>
<rect width="15.6972" height="3.85966" rx="1.92983" transform="matrix(0.954748 -0.297415 0.297513 0.954718 217.639 61.4863)" fill="#4D69FF"/>
<ellipse cx="1.92998" cy="1.92983" rx="1.92998" ry="1.92983" transform="matrix(0.954748 -0.297415 0.297513 0.954718 221.831 55.0537)" fill="#4D69FF"/>
<ellipse cx="1.92998" cy="1.92983" rx="1.92998" ry="1.92983" transform="matrix(0.954748 -0.297415 0.297513 0.954718 224.743 64.3916)" fill="#4D69FF"/>
</svg>
