<svg width="184" height="192" viewBox="0 0 184 192" fill="none" xmlns="http://www.w3.org/2000/svg">
<circle cx="90" cy="90" r="90" fill="#ACD1FB"/>
<rect width="114.841" height="114.84" rx="31.3391" transform="matrix(0.794288 0.607542 -0.60752 0.794304 84.7676 2)" fill="#EF8C67"/>
<path d="M85.5945 99.191C93.6485 105.986 101.958 105.87 106.18 96.8724" stroke="black" stroke-width="3.33395" stroke-linecap="round"/>
<path d="M88.6894 81.2529C97.8726 78.8025 97.4114 88.7745 96.272 91.7461C95.1325 94.7176 84.5107 105.891 67.8653 93.1981C85.8744 96.395 79.5062 83.7034 88.6894 81.2529Z" fill="#6D5F5A"/>
<path d="M102.438 79.9211C92.9552 79.2794 95.3222 88.9773 97.011 91.6748C98.6997 94.3723 111.269 103.299 125.168 87.6461C108.108 94.2411 111.921 80.5629 102.438 79.9211Z" fill="#6D5F5A"/>
<ellipse cx="73.6694" cy="69.014" rx="14.0034" ry="14.0028" fill="black"/>
<ellipse cx="76.5772" cy="67.0587" rx="5.31162" ry="5.31139" fill="white"/>
<ellipse cx="113.025" cy="64.345" rx="11.6695" ry="11.669" fill="black"/>
<ellipse cx="114.614" cy="61.1251" rx="4.42635" ry="4.42616" fill="white"/>
<path d="M132.691 64.3455C140.693 64.3455 149.697 60.0113 143.695 47.6755" stroke="black" stroke-width="2.00037" stroke-linecap="round" stroke-linejoin="round" stroke-dasharray="4.67 4.67"/>
<rect x="93.6793" y="46.3426" width="38.0093" height="36.0071" rx="18.0033" fill="white" fill-opacity="0.3" stroke="black" stroke-width="2.66716"/>
<path d="M67.0628 180.367L80.0659 142.026L83.3994 145.36C80.8433 159.029 77.2646 185.167 83.3994 180.367C91.0679 174.365 94.4021 187.368 91.4014 190.369C88.4006 193.369 80.0659 190.702 71.0638 190.369C63.8621 190.102 65.3958 183.589 67.0628 180.367Z" fill="#EF8C67"/>
<path d="M97.0687 180.367L110.072 142.026L113.405 145.36C110.849 159.029 107.27 185.167 113.405 180.367C121.074 174.365 124.408 187.368 121.407 190.369C118.406 193.369 110.072 190.702 101.07 190.369C93.8679 190.102 95.4016 183.589 97.0687 180.367Z" fill="#EF8C67"/>
<path d="M22.3333 140.36C20.1995 134.759 37.6703 122.467 46.6725 117.022L50.006 118.689C42.4487 125.579 29.6011 135.626 33.3354 134.025C38.0031 132.025 38.67 141.027 34.669 144.027C32.8019 145.428 25.0006 147.361 22.3333 140.36Z" fill="#EF8C67"/>
<path d="M167.532 126.754C169.474 121.618 153.579 110.346 145.389 105.352L142.356 106.881C149.232 113.2 160.92 122.413 157.523 120.945C153.276 119.111 152.669 127.366 156.309 130.118C158.008 131.402 165.106 133.175 167.532 126.754Z" fill="#EF8C67"/>
<rect width="7.33507" height="25.3384" rx="3.66754" transform="matrix(0.968405 0.249382 -0.249367 0.968409 151.73 108.089)" fill="#C15F5F"/>
<path d="M177.83 96.3768C175.32 106.125 165.382 111.992 155.633 109.482C145.885 106.972 140.017 97.0339 142.527 87.2856C145.037 77.5374 154.975 71.6699 164.724 74.1803C174.472 76.6908 180.34 86.6285 177.83 96.3768Z" fill="#D0CCCC" fill-opacity="0.55" stroke="#753838" stroke-width="2.66716"/>
</svg>
