<svg width="322" height="322" viewBox="0 0 322 322" fill="none" xmlns="http://www.w3.org/2000/svg">
<circle cx="161" cy="161" r="161" fill="#135A9B"/>
<circle cx="161" cy="157" r="145" fill="#6291D9"/>
<ellipse cx="161" cy="157.5" rx="134" ry="129.5" fill="#9BC2FC"/>
<rect width="87.5902" height="87.5905" rx="23.9037" transform="matrix(0.794308 0.607515 -0.607546 0.794284 159.439 52.248)" fill="#EF8C67"/>
<path d="M162.442 112.695C169.446 110.826 169.094 118.432 168.225 120.698C167.356 122.965 159.255 131.487 146.559 121.806C160.295 124.244 155.438 114.564 162.442 112.695Z" fill="#6D5F5A"/>
<path d="M172.918 111.686C165.686 111.197 167.491 118.594 168.779 120.651C170.067 122.708 179.654 129.517 190.255 117.578C177.243 122.608 180.151 112.176 172.918 111.686Z" fill="#6D5F5A"/>
<ellipse cx="151.012" cy="103.358" rx="10.6801" ry="10.6803" fill="black"/>
<ellipse cx="153.239" cy="101.866" rx="4.05107" ry="4.05113" fill="white"/>
<ellipse cx="180.988" cy="99.7977" rx="8.90008" ry="8.90022" fill="black"/>
<ellipse cx="182.205" cy="97.3408" rx="3.3759" ry="3.37594" fill="white"/>
<path d="M195.992 99.7986C202.095 99.7986 208.962 96.4928 204.385 87.084" stroke="black" stroke-width="1.52577" stroke-linecap="round" stroke-linejoin="round" stroke-dasharray="3.56 3.56"/>
<rect x="166.226" y="86.0689" width="28.9888" height="27.4635" rx="13.7318" fill="white" fill-opacity="0.3" stroke="black" stroke-width="2.03436"/>
<path d="M150.215 188.294L160.132 159.051L162.674 161.594C160.725 172.02 157.995 191.956 162.674 188.294C168.523 183.717 171.066 193.634 168.777 195.923C166.489 198.212 160.132 196.177 153.266 195.923C147.774 195.72 148.943 190.753 150.215 188.294Z" fill="#EF8C67"/>
<path d="M173.096 188.294L183.013 159.051L185.555 161.594C183.606 172.02 180.876 191.956 185.555 188.294C191.404 183.717 193.947 193.634 191.658 195.923C189.369 198.212 183.013 196.177 176.147 195.923C170.654 195.72 171.824 190.753 173.096 188.294Z" fill="#EF8C67"/>
<path d="M116.716 144.049C120.378 144.659 130.956 141.082 135.788 139.217L128.668 134.386C126.633 135.403 122.209 137.488 120.785 137.691C119.361 137.895 111.206 135.572 107.307 134.386C108.24 133.962 110.003 132.402 109.596 129.554C109.087 125.994 104.51 126.757 102.985 126.503C101.459 126.248 97.6446 128.791 97.8988 134.386C98.1531 139.98 112.139 143.286 116.716 144.049Z" fill="#EF8C67"/>
<path d="M212.796 135.191C209.258 135.772 199.038 132.367 194.37 130.592L201.249 125.993C203.214 126.962 207.489 128.946 208.865 129.14C210.241 129.334 218.119 127.123 221.886 125.993C220.985 125.59 219.282 124.105 219.675 121.395C220.166 118.006 224.588 118.732 226.062 118.49C227.536 118.248 231.221 120.668 230.976 125.993C230.73 131.318 217.218 134.465 212.796 135.191Z" fill="#EF8C67"/>
<path d="M209.651 61.5632C211.061 63.2609 212.752 66.9417 208.241 68.0826M208.241 68.0826C203.73 69.2235 203.542 65.4341 204.012 63.3968L204.616 62.1744C203.475 60.8841 202.239 58.1405 206.428 57.4886C206.227 55.7908 206.872 52.762 211.061 54.2289C211.799 52.8707 213.76 50.8878 215.693 53.8215M208.241 68.0826C211.302 71.3422 213.008 68.8975 213.478 67.2677C215.894 72.1573 218.378 69.8483 219.318 68.0826M215.693 53.8215C213.545 56.4699 211.061 61.8483 218.311 62.1744M215.693 53.8215C218.311 52.5311 223.548 51.4581 223.548 57.4886C225.494 57.6244 228.583 58.9961 225.36 63.3968M222.541 62.1744C224.286 62.1065 227.253 62.9079 225.159 66.6565C223.064 70.4052 220.392 69.1692 219.318 68.0826M219.318 68.0826C218.848 67.7431 217.989 66.7788 218.311 65.6379M219.922 53.2103C221.131 55.0439 222.299 58.5073 217.304 57.6924M207.839 45.876L211.061 50.9693M223.548 46.4872L220.728 50.9693M228.381 60.7483L235.229 59.3222M225.159 69.9162L229.992 75.0095M216.901 72.361L216.096 79.4916M207.839 70.9349L200.387 75.6207M201.595 60.7483H194.144M197.567 49.1357L204.012 54.6364" stroke="#EE4B4B" stroke-width="1.86755"/>
<path d="M100.86 77.7839C99.2277 76.0579 95.9625 71.8748 95.9625 68.9507M100.86 77.7839V82.0482M100.86 77.7839H105.853M97.1869 59.5083C101.472 53.721 114.332 55.9571 114.941 63.468C115.247 67.2361 113.901 71.753 110.962 75.6518L110.846 77.7839M105.758 53.4164V38.7959M114.941 57.6807L122.9 48.8475M118.615 65.9048L131.165 66.8185M114.941 75.6518L125.043 82.3529M95.9625 75.6518L88.9219 82.3529M92.9013 65.9048H81.5752M97.1869 57.6807L88.9219 48.8475M110.846 77.7839L110.614 82.0482M110.846 77.7839H105.853M100.86 82.0482H110.614M100.86 82.0482V85.3988M110.614 82.0482L110.432 85.3988M100.86 85.3988V86.3126C103.799 91.9171 108.207 89.257 110.35 86.9218L110.432 85.3988M100.86 85.3988H110.432M105.853 77.7839C107.25 75.2456 109.86 70.1691 109.125 70.1691C108.207 70.1691 105.452 65.6002 103.921 70.1691C102.697 73.8242 104.699 76.7686 105.853 77.7839Z" stroke="#FFEF5E" stroke-width="2.19708"/>
<ellipse cx="171.134" cy="134.727" rx="6.01779" ry="7.43375" fill="#282727"/>
</svg>
