<svg width="340" height="340" viewBox="0 0 340 340" fill="none" xmlns="http://www.w3.org/2000/svg">
<circle cx="170" cy="170" r="170" fill="#135A9B"/>
<circle cx="170" cy="186" r="145" fill="#6291D9"/>
<ellipse cx="170" cy="195.5" rx="134" ry="129.5" fill="#9BC2FC"/>
<ellipse cx="227.117" cy="159.489" rx="71.8829" ry="118.489" fill="#777777"/>
<ellipse cx="227.144" cy="159.481" rx="63.8963" ry="105.176" fill="#F3F3F3"/>
<line y1="-0.714352" x2="40.4087" y2="-0.714352" transform="matrix(-0.707081 0.707133 -0.707081 -0.707133 236.188 101.901)" stroke="#D2D2D2" stroke-width="1.4287"/>
<line y1="-0.714352" x2="92.3626" y2="-0.714352" transform="matrix(-0.707086 0.707127 -0.707086 -0.707127 266.807 118.229)" stroke="#D2D2D2" stroke-width="1.4287"/>
<line y1="-0.714352" x2="54.8403" y2="-0.714352" transform="matrix(-0.707087 0.707127 -0.707087 -0.707127 252.512 175.388)" stroke="#D2D2D2" stroke-width="1.4287"/>
<g opacity="0.4">
<mask id="mask0_962_17180" style="mask-type:alpha" maskUnits="userSpaceOnUse" x="163" y="54" width="129" height="211">
<ellipse cx="227.144" cy="159.481" rx="63.8963" ry="105.176" fill="#F3F3F3"/>
</mask>
<g mask="url(#mask0_962_17180)">
<g opacity="0.4">
<rect width="139.626" height="139.628" rx="38.1082" transform="matrix(-0.794345 0.607467 0.607595 0.794248 239.91 60)" fill="#EF8C67"/>
<path d="M235.1 156.354C223.926 153.372 224.487 165.506 225.873 169.122C227.26 172.738 240.185 186.335 260.44 170.889C238.525 174.779 246.275 159.335 235.1 156.354Z" fill="#6D5F5A"/>
<path d="M217.699 154.677C229.238 153.896 226.358 165.697 224.303 168.979C222.248 172.262 206.953 183.124 190.04 164.077C210.8 172.102 206.16 155.458 217.699 154.677Z" fill="#6D5F5A"/>
<ellipse cx="17.0245" cy="17.0257" rx="17.0245" ry="17.0257" transform="matrix(-1 0 0 1 270.375 124.452)" fill="black"/>
<ellipse cx="6.45756" cy="6.45802" rx="6.45756" ry="6.45802" transform="matrix(-1 0 0 1 256.27 132.646)" fill="white"/>
<ellipse cx="14.187" cy="14.1881" rx="14.187" ry="14.1881" transform="matrix(-1 0 0 1 219.727 121.619)" fill="black"/>
<ellipse cx="5.3813" cy="5.38168" rx="5.3813" ry="5.38168" transform="matrix(-1 0 0 1 208.982 126.504)" fill="white"/>
<path d="M181.629 135.802C171.901 135.802 160.955 130.532 168.251 115.533" stroke="black" stroke-width="2.43244" stroke-linecap="round" stroke-linejoin="round" stroke-dasharray="5.68 5.68"/>
<rect x="-1.62163" y="1.62163" width="46.2088" height="43.7801" rx="21.89" transform="matrix(-1 0 0 1 227.47 112.293)" fill="white" fill-opacity="0.3" stroke="black" stroke-width="3.24325"/>
<path d="M161.561 184.224C149.384 190.313 148.41 223.194 193.221 218.323L161.561 184.224Z" fill="#EF8C67"/>
<path d="M254.623 276.875L238.815 230.257L234.762 234.311C237.87 250.931 242.22 282.712 234.762 276.875C225.439 269.578 221.386 285.388 225.034 289.036C228.682 292.684 238.815 289.441 249.759 289.036C258.514 288.712 256.65 280.793 254.623 276.875Z" fill="#EF8C67"/>
<path d="M218.131 276.877L202.322 230.259L198.27 234.313C201.377 250.933 205.728 282.714 198.27 276.877C188.947 269.58 184.893 285.39 188.541 289.038C192.19 292.686 202.322 289.443 213.267 289.038C222.022 288.714 220.158 280.795 218.131 276.877Z" fill="#EF8C67"/>
<path d="M211.642 180.053C211.642 187.119 218.572 189.595 223.71 189.595C228.848 189.595 235.996 188.337 235.996 181.272C235.996 174.206 228.848 186.142 223.71 186.142C218.572 186.142 211.642 172.987 211.642 180.053Z" fill="#141414"/>
<path d="M176.399 185.442C176.805 180.571 176.642 170.585 172.746 169.61C167.875 168.393 166.659 168.392 165.439 172.046C163.589 177.591 166.251 182.6 166.657 184.224C167.063 185.442 167.631 188.121 166.657 189.095C165.439 190.313 162.273 189.338 159.351 191.531C154.482 195.184 152.153 202.64 159.351 212.234C163.006 217.105 170.312 216.862 180.052 215.887C184.111 215.482 191.985 213.452 191.011 208.581C190.055 203.798 184.327 204.102 181.43 204.883C183.016 204.4 184.809 202.607 186.142 201.274C188.577 198.838 187.103 196.274 184.924 195.184C183.536 194.49 181.357 194.192 179.739 194.289C183.109 191.968 188.173 186.348 176.399 185.442Z" fill="#EF8C67" stroke="black" stroke-width="2.43559"/>
<path d="M279.651 220.217C289.987 225.105 328.441 207.36 326.007 195.197C326.009 162.313 294.939 206.347 284.604 201.459C274.268 196.571 268.209 195.986 265.622 201.458C263.035 206.93 269.316 215.329 279.651 220.217Z" fill="#EF8C67"/>
</g>
</g>
</g>
<rect width="139.626" height="139.628" rx="38.1082" transform="matrix(0.794345 0.607467 -0.607595 0.794248 111.1 60)" fill="#EF8C67"/>
<path d="M115.912 156.354C127.086 153.372 126.525 165.506 125.139 169.122C123.752 172.738 110.827 186.335 90.5716 170.889C112.486 174.779 104.737 159.335 115.912 156.354Z" fill="#6D5F5A"/>
<path d="M133.313 154.677C121.773 153.896 124.654 165.697 126.709 168.979C128.764 172.262 144.059 183.124 160.972 164.077C140.212 172.102 144.852 155.458 133.313 154.677Z" fill="#6D5F5A"/>
<ellipse cx="97.6592" cy="141.478" rx="17.0245" ry="17.0257" fill="black"/>
<ellipse cx="101.198" cy="139.105" rx="6.45756" ry="6.45802" fill="white"/>
<ellipse cx="145.47" cy="135.807" rx="14.187" ry="14.1881" fill="black"/>
<ellipse cx="147.409" cy="131.886" rx="5.3813" ry="5.38168" fill="white"/>
<path d="M169.381 135.802C179.109 135.802 190.055 130.532 182.759 115.533" stroke="black" stroke-width="2.43244" stroke-linecap="round" stroke-linejoin="round" stroke-dasharray="5.68 5.68"/>
<rect x="121.919" y="113.915" width="46.2088" height="43.7801" rx="21.89" fill="white" fill-opacity="0.3" stroke="black" stroke-width="3.24325"/>
<path d="M189.449 184.224C201.626 190.313 202.6 223.194 157.789 218.323L189.449 184.224Z" fill="#EF8C67"/>
<path d="M96.3868 276.875L112.195 230.257L116.248 234.311C113.14 250.931 108.79 282.712 116.248 276.875C125.571 269.578 129.624 285.388 125.976 289.036C122.328 292.684 112.195 289.441 101.251 289.036C92.4955 288.712 94.36 280.793 96.3868 276.875Z" fill="#EF8C67"/>
<path d="M132.879 276.877L148.687 230.259L152.74 234.313C149.632 250.933 145.282 282.714 152.74 276.877C162.063 269.58 166.116 285.39 162.468 289.038C158.82 292.686 148.687 289.443 137.743 289.038C128.988 288.714 130.852 280.795 132.879 276.877Z" fill="#EF8C67"/>
<path d="M139.368 180.053C139.368 187.119 132.438 189.595 127.3 189.595C122.161 189.595 115.014 188.337 115.014 181.272C115.014 174.206 122.161 186.142 127.3 186.142C132.438 186.142 139.368 172.987 139.368 180.053Z" fill="#141414"/>
<path d="M174.611 185.442C174.205 180.571 174.367 170.585 178.264 169.61C183.135 168.393 184.351 168.392 185.57 172.046C187.421 177.591 184.758 182.6 184.353 184.224C183.947 185.442 183.378 188.121 184.353 189.095C185.57 190.313 188.737 189.338 191.659 191.531C196.528 195.184 198.857 202.64 191.659 212.234C188.004 217.105 180.698 216.862 170.958 215.887C166.899 215.482 159.025 213.452 159.999 208.581C160.955 203.798 166.683 204.102 169.58 204.883C167.994 204.4 166.201 202.607 164.868 201.274C162.432 198.838 163.907 196.274 166.085 195.184C167.474 194.49 169.653 194.192 171.271 194.289C167.901 191.968 162.837 186.348 174.611 185.442Z" fill="#EF8C67" stroke="black" stroke-width="2.43559"/>
<path d="M71.3586 220.217C61.0232 225.105 22.5692 207.36 25.003 195.197C25.0003 162.313 56.0707 206.347 66.4061 201.459C76.7416 196.571 82.8005 195.986 85.3878 201.458C87.9752 206.93 81.6941 215.329 71.3586 220.217Z" fill="#EF8C67"/>
</svg>
