<svg width="322" height="322" viewBox="0 0 322 322" fill="none" xmlns="http://www.w3.org/2000/svg">
<circle cx="161" cy="161" r="161" fill="#135A9B"/>
<circle cx="161" cy="157" r="145" fill="#6291D9"/>
<ellipse cx="161" cy="157.5" rx="134" ry="129.5" fill="#9BC2FC"/>
<rect width="86.5196" height="86.5187" rx="23.613" transform="matrix(0.794361 0.607446 -0.607615 0.794232 140.577 52.0225)" fill="#EF8C67"/>
<path d="M143.539 111.731C150.458 109.885 150.11 117.398 149.252 119.637C148.394 121.875 140.392 130.293 127.851 120.73C141.419 123.139 136.621 113.577 143.539 111.731Z" fill="#6D5F5A"/>
<path d="M154.357 110.686C147.212 110.203 148.996 117.509 150.268 119.541C151.54 121.573 161.01 128.299 171.481 116.507C158.628 121.475 161.501 111.17 154.357 110.686Z" fill="#6D5F5A"/>
<ellipse cx="132.245" cy="102.505" rx="10.5498" ry="10.5494" fill="black"/>
<ellipse cx="134.437" cy="101.034" rx="4.00163" ry="4.00148" fill="white"/>
<ellipse cx="161.866" cy="98.9904" rx="8.79147" ry="8.79114" fill="black"/>
<ellipse cx="163.069" cy="96.5631" rx="3.3347" ry="3.33457" fill="white"/>
<path d="M176.688 98.9914C182.717 98.9914 189.5 95.7261 184.979 86.4326" stroke="black" stroke-width="1.50721" stroke-linecap="round" stroke-linejoin="round" stroke-dasharray="3.52 3.52"/>
<rect x="147.283" y="85.4286" width="28.6349" height="27.1267" rx="13.5634" fill="white" fill-opacity="0.3" stroke="black" stroke-width="2.00962"/>
<path d="M131.461 186.401L141.258 157.516L143.769 160.027C141.843 170.326 139.147 190.018 143.769 186.401C149.546 181.88 152.058 191.675 149.798 193.936C147.537 196.197 141.258 194.187 134.476 193.936C129.05 193.735 130.206 188.829 131.461 186.401Z" fill="#EF8C67"/>
<path d="M154.081 186.402L163.877 157.517L166.388 160.028C164.462 170.327 161.766 190.019 166.388 186.402C172.165 181.881 174.677 191.676 172.417 193.937C170.156 196.198 163.877 194.188 157.095 193.937C151.669 193.736 152.825 188.83 154.081 186.402Z" fill="#EF8C67"/>
<path d="M156.392 128.917C156.392 133.295 153.811 136.844 150.627 136.844C147.443 136.844 144.861 133.295 144.861 128.917C144.861 124.539 147.443 128.917 150.627 128.917C153.811 128.917 156.392 124.539 156.392 128.917Z" fill="#141414"/>
<path d="M96.3167 72.9484C101.93 79.6481 111.284 102.259 115.26 112.727C117.833 114.356 122.276 117.753 119.47 118.311C115.962 119.009 91.4053 88.3021 89.3005 85.5106C87.1956 82.7191 75.2682 77.834 73.1633 72.9484C71.0584 68.0629 78.7762 65.9697 80.8811 65.2718C82.9859 64.5739 89.3005 64.5739 96.3167 72.9484Z" fill="#EF8C67"/>
<path d="M205.603 70.3233C199.838 77.2416 190.229 100.591 186.145 111.401C183.502 113.082 178.938 116.59 181.821 117.166C185.424 117.887 210.648 86.1781 212.81 83.2955C214.972 80.4129 227.223 75.3683 229.385 70.3233C231.547 65.2783 223.62 63.1167 221.458 62.3961C219.296 61.6754 212.81 61.6754 205.603 70.3233Z" fill="#EF8C67"/>
<path d="M248.741 135.111C248.146 133.332 246.413 133.246 243.5 132.912C242.089 137.557 239.399 147.01 239.927 147.658C240.586 148.468 246.752 147.732 247.72 146.387C248.687 145.042 249.485 137.336 248.741 135.111Z" fill="#FF7448"/>
<path d="M244.049 135.511C244.049 145.559 236.58 153.704 227.366 153.704C218.153 153.704 210.684 145.559 210.684 135.511C210.684 125.463 218.153 109.206 227.366 109.206C236.58 109.206 244.049 125.463 244.049 135.511Z" fill="#FAE561"/>
<path d="M226.87 137.213C229.662 137.475 232.165 136.217 232.964 134.196" stroke="black" stroke-width="1.70862" stroke-linecap="round"/>
<g filter="url(#filter0_f_954_17191)">
<ellipse cx="236.413" cy="133.771" rx="2.3171" ry="2.31765" fill="#F86464" fill-opacity="0.4"/>
</g>
<g filter="url(#filter1_f_954_17191)">
<ellipse cx="221.568" cy="134.698" rx="2.3171" ry="2.31765" fill="#F86464" fill-opacity="0.4"/>
</g>
<ellipse cx="223.259" cy="129.419" rx="4.0021" ry="4.00306" fill="black"/>
<ellipse cx="234.012" cy="128.04" rx="4.0021" ry="4.00306" fill="black"/>
<ellipse opacity="0.4" cx="3.12838" cy="1.27458" rx="3.12838" ry="1.27458" transform="matrix(0.769551 -0.638586 0.638079 0.769971 219.947 114.36)" fill="white"/>
<path d="M237.705 140.445C237.945 137.538 242.554 134.828 244.454 134.002C244.229 133.617 243.764 132.846 243.704 132.846C243.629 132.846 240.849 133.933 239.655 134.746C237.928 135.921 236.57 136.598 235.906 138.711C235.494 140.023 235.756 142.263 235.756 142.263C235.756 142.263 235.819 144.859 236.131 146.476C236.379 147.763 236.881 149.449 237.031 149.697C237.151 149.896 238.03 149.174 238.455 148.789L238.23 148.128C237.955 146.779 237.466 143.353 237.705 140.445Z" fill="#FF7448"/>
<path d="M217.807 141.408C217.554 138.574 212.689 135.934 210.684 135.129C210.921 134.753 211.412 134.002 211.475 134.002C211.554 134.002 214.489 135.062 215.749 135.854C217.572 136.999 219.006 137.658 219.707 139.718C220.142 140.996 219.865 143.179 219.865 143.179C219.865 143.179 219.799 145.709 219.469 147.285C219.207 148.539 218.678 150.183 218.52 150.424C218.393 150.617 217.464 149.914 217.016 149.539L217.253 148.895C217.543 147.58 218.061 144.242 217.807 141.408Z" fill="#FF7448"/>
<path d="M228.316 154.281C228.316 156.137 227.158 159.499 225.768 157.642C223.682 159.496 223.219 156.137 223.219 154.281C223.219 152.425 224.36 150.921 225.768 150.921C227.175 150.921 228.316 152.425 228.316 154.281Z" fill="#FAE561"/>
<path d="M234.316 154.048C234.316 155.904 233.158 159.265 231.768 157.409C229.682 159.263 229.219 155.904 229.219 154.048C229.219 152.192 230.36 150.688 231.768 150.688C233.175 150.688 234.316 152.192 234.316 154.048Z" fill="#FAE561"/>
<path d="M209.147 133.901C212.554 136.6 214.565 139.735 213.638 140.905C212.712 142.075 209.199 140.835 205.792 138.137C202.386 135.439 203.678 130.977 204.604 129.807C208.319 129.132 205.74 131.203 209.147 133.901Z" fill="#FAE561"/>
<path d="M243.961 134.652C245.924 130.89 248.563 128.388 249.854 129.062C251.145 129.736 250.601 133.331 248.638 137.092C246.675 140.854 242.159 140.433 240.868 139.759C239.539 136.32 241.998 138.413 243.961 134.652Z" fill="#FAE561"/>
<path d="M231.402 128.291V128.291C232.606 128.063 233.556 127.136 233.814 125.938L233.923 125.431L233.948 125.712C234.074 127.092 235.175 128.181 236.556 128.291V128.291L236.419 128.338C235.064 128.795 234.074 129.965 233.847 131.377V131.377L233.717 130.638C233.507 129.451 232.586 128.517 231.402 128.291V128.291Z" fill="#FFDA56"/>
<path d="M220.443 129.288V129.288C221.647 129.06 222.597 128.133 222.855 126.935L222.964 126.429L222.989 126.709C223.115 128.089 224.216 129.178 225.597 129.288V129.288L225.46 129.335C224.105 129.792 223.115 130.962 222.888 132.374V132.374L222.758 131.636C222.548 130.448 221.627 129.514 220.443 129.288V129.288Z" fill="#FFDA56"/>
<rect x="206.987" y="158.021" width="44.83" height="8.96597" rx="1.99244" fill="#9DB988"/>
<rect x="199.018" y="164.995" width="58.7771" height="8.96597" rx="1.99244" fill="#FFAE35"/>
<path d="M96.4069 54.1199L102.494 53.0601C106.485 52.3653 109.634 49.2789 110.409 45.3017L112.258 35.8093L113.064 43.2495C113.692 49.0547 118.302 53.6247 124.112 54.202L129.521 54.7396L118.858 58.205C116.239 59.056 114.335 61.3262 113.953 64.0533L112.489 74.4971L111.085 67.1961C109.873 60.8969 105.005 55.9378 98.7296 54.611L96.4069 54.1199Z" fill="#FFDA56"/>
<path d="M116.906 69.9801L121.822 69.0477C124.291 68.5792 126.24 66.6775 126.769 64.2202L128.316 57.0366L128.813 62.4905C129.162 66.3195 132.218 69.3406 136.05 69.6462L140.236 69.9801L132.278 72.6637C130.656 73.2105 129.471 74.6109 129.201 76.3005L127.975 83.9456L127.031 78.605C126.294 74.4355 123.058 71.155 118.899 70.3608L116.906 69.9801Z" fill="#FFDA56"/>
<defs>
<filter id="filter0_f_954_17191" x="232.387" y="129.745" width="8.05102" height="8.05297" filterUnits="userSpaceOnUse" color-interpolation-filters="sRGB">
<feFlood flood-opacity="0" result="BackgroundImageFix"/>
<feBlend mode="normal" in="SourceGraphic" in2="BackgroundImageFix" result="shape"/>
<feGaussianBlur stdDeviation="0.854308" result="effect1_foregroundBlur_954_17191"/>
</filter>
<filter id="filter1_f_954_17191" x="217.542" y="130.671" width="8.05102" height="8.05297" filterUnits="userSpaceOnUse" color-interpolation-filters="sRGB">
<feFlood flood-opacity="0" result="BackgroundImageFix"/>
<feBlend mode="normal" in="SourceGraphic" in2="BackgroundImageFix" result="shape"/>
<feGaussianBlur stdDeviation="0.854308" result="effect1_foregroundBlur_954_17191"/>
</filter>
</defs>
</svg>
