<svg width="322" height="322" viewBox="0 0 322 322" fill="none" xmlns="http://www.w3.org/2000/svg">
<circle cx="161" cy="161" r="161" fill="#135A9B"/>
<circle cx="161" cy="157" r="145" fill="#6291D9"/>
<ellipse cx="161" cy="157.5" rx="134" ry="129.5" fill="#9BC2FC"/>
<path fill-rule="evenodd" clip-rule="evenodd" d="M222.382 92.0107C224.826 93.9368 231.373 96.6333 238 92.0107V102.467C237.276 105.768 234.768 112.4 230.531 112.51C226.293 112.62 223.423 106.227 222.518 103.017L222.382 92.0107ZM228.493 99.715H224.962C225.143 99.2106 225.612 98.1635 226.72 98.1635C228.022 98.1635 228.403 99.0271 228.493 99.715ZM235.013 103.842C231.753 106.154 227.411 104.84 225.419 103.877C225.283 104.702 226.742 109.505 230.531 109.07C233.662 108.711 234.922 105.493 235.013 103.842ZM235.284 99.715H231.753C231.934 99.2106 232.554 98.1635 233.662 98.1635C234.53 98.1635 235.194 99.0271 235.284 99.715Z" fill="#F9BF6A"/>
<path d="M224.962 98.2551C225.596 97.2921 227.19 95.9438 228.493 98.2551M231.753 98.2551C232.387 97.2921 233.98 95.9438 235.284 98.2551M222.382 92.0107C224.826 93.9368 231.373 96.6333 238 92.0107V102.467C237.276 105.768 234.768 112.4 230.531 112.51C226.293 112.62 223.423 106.227 222.518 103.017L222.382 92.0107ZM224.962 99.715H228.493C228.403 99.0271 228.022 98.1635 226.72 98.1635C225.612 98.1635 225.143 99.2106 224.962 99.715ZM225.419 103.877C227.411 104.84 231.753 106.154 235.013 103.842C234.922 105.493 233.662 108.711 230.531 109.07C226.742 109.505 225.283 104.702 225.419 103.877ZM231.753 99.715H235.284C235.194 99.0271 234.53 98.1635 233.662 98.1635C232.554 98.1635 231.934 99.2106 231.753 99.715Z" stroke="#4D3B3B" stroke-width="0.0615832"/>
<rect x="104.282" y="53.5742" width="18.5471" height="18.5456" rx="1.18034" fill="#F0D796"/>
<ellipse cx="109.424" cy="57.6964" rx="2.06079" ry="2.06062" fill="#AA6262"/>
<ellipse cx="117.675" cy="68.003" rx="2.06079" ry="2.06062" fill="#AA6262"/>
<ellipse cx="113.571" cy="62.8468" rx="2.06079" ry="2.06062" fill="#AA6262"/>
<rect width="84.0613" height="84.0623" rx="19.8287" transform="matrix(0.794297 0.607529 -0.607532 0.794295 156.754 50.5244)" fill="#EF8C67"/>
<path d="M158.273 130.492C165.722 126.185 172.177 125.897 177.583 125.89" stroke="black" stroke-width="2.44044" stroke-linecap="round"/>
<path d="M162.532 82.3054C171.705 83.706 178.207 81.0438 183.555 78.5503" stroke="black" stroke-width="2.44044" stroke-linecap="round"/>
<path d="M159.625 108.536C166.347 106.743 166.009 114.042 165.175 116.217C164.341 118.392 156.566 126.571 144.382 117.28C157.564 119.62 152.903 110.33 159.625 108.536Z" fill="#6D5F5A"/>
<path d="M169.686 107.563C162.744 107.093 164.477 114.192 165.713 116.166C166.949 118.141 176.15 124.675 186.323 113.217C173.836 118.045 176.627 108.033 169.686 107.563Z" fill="#6D5F5A"/>
<ellipse cx="148.648" cy="99.5763" rx="10.2497" ry="10.2501" fill="black"/>
<ellipse cx="150.759" cy="98.1448" rx="3.88783" ry="3.88799" fill="white"/>
<ellipse cx="177.446" cy="96.16" rx="8.54143" ry="8.54179" fill="black"/>
<ellipse cx="178.63" cy="93.8025" rx="3.23986" ry="3.23999" fill="white"/>
<path d="M191.848 96.1625C197.705 96.1625 204.295 92.9898 199.902 83.96" stroke="black" stroke-width="1.46427" stroke-linecap="round" stroke-linejoin="round" stroke-dasharray="3.42 3.42"/>
<rect x="163.275" y="82.984" width="27.8206" height="26.3576" rx="13.1784" fill="white" fill-opacity="0.3" stroke="black" stroke-width="1.95235"/>
<path d="M143.84 181.092L153.357 153.026L155.797 155.467C153.926 165.473 151.307 184.607 155.797 181.092C161.41 176.699 163.851 186.217 161.654 188.414C159.458 190.61 153.357 188.658 146.768 188.414C141.497 188.219 142.62 183.451 143.84 181.092Z" fill="#EF8C67"/>
<path d="M165.81 181.092L175.327 153.026L177.767 155.467C175.896 165.473 173.277 184.607 177.767 181.092C183.38 176.699 185.82 186.217 183.624 188.414C181.428 190.61 175.327 188.658 168.738 188.414C163.467 188.219 164.589 183.451 165.81 181.092Z" fill="#EF8C67"/>
<path d="M110.37 138.627C113.885 139.212 124.037 135.779 128.674 133.99L121.84 129.353C119.888 130.329 115.642 132.33 114.275 132.525C112.908 132.721 105.083 130.492 101.341 129.353C102.236 128.946 103.928 127.449 103.537 124.716C103.049 121.299 98.6565 122.031 97.1923 121.787C95.728 121.543 92.0674 123.984 92.3114 129.353C92.5555 134.722 105.978 137.894 110.37 138.627Z" fill="#EF8C67"/>
<path d="M109.731 95.7188C111.576 98.7664 120.795 104.232 125.173 106.583L124.239 98.3782C122.226 97.533 117.942 95.6154 116.903 94.7058C115.864 93.7962 112.457 86.4071 110.883 82.8262C111.774 83.2401 114.012 83.5485 115.831 81.4714C118.105 78.8751 114.688 76.0197 113.919 74.7498C113.15 73.48 108.914 72.2929 105 75.9761C101.086 79.6593 107.424 91.9092 109.731 95.7188Z" fill="#EF8C67"/>
<path d="M216.139 131.484C212.744 132.041 202.936 128.774 198.456 127.07L205.058 122.656C206.944 123.586 211.046 125.49 212.367 125.676C213.687 125.862 221.248 123.74 224.863 122.656C223.998 122.269 222.364 120.844 222.741 118.243C223.212 114.991 227.456 115.688 228.871 115.455C230.286 115.223 233.822 117.546 233.586 122.656C233.351 127.767 220.383 130.787 216.139 131.484Z" fill="#EF8C67"/>
<path d="M200.702 74.4587C198.406 77.021 188.715 80.6215 184.156 82.1016L186.535 74.5247C188.587 74.0667 192.978 72.98 194.123 72.2973C195.269 71.6147 199.831 65.2231 201.969 62.1127C201.052 62.3528 198.886 62.267 197.549 60.0032C195.879 57.1734 199.623 55.0569 200.579 53.9893C201.536 52.9217 205.748 52.5154 208.767 56.6456C211.786 60.7758 203.573 71.256 200.702 74.4587Z" fill="#EF8C67"/>
<path fill-rule="evenodd" clip-rule="evenodd" d="M190.177 37.2774C190.177 39.8604 187.836 41.9543 184.949 41.9543C182.061 41.9543 179.72 39.8604 179.72 37.2774C179.72 37.1843 179.723 37.0918 179.729 37H174.754V43.7385C174.406 43.6501 174.041 43.6031 173.666 43.6031C171.234 43.6031 169.263 45.5739 169.263 48.0049C169.263 50.4359 171.234 52.4067 173.666 52.4067C174.041 52.4067 174.406 52.3597 174.754 52.2713V56.8081H195.119V37H190.168C190.174 37.0918 190.177 37.1843 190.177 37.2774Z" fill="#FFDA56"/>
<path fill-rule="evenodd" clip-rule="evenodd" d="M102.301 108.948C100.774 109.781 98.7812 109.071 97.8505 107.363C96.9198 105.656 97.4036 103.597 98.9311 102.764C98.984 102.735 99.0375 102.708 99.0915 102.683L97.4844 99.7344L93.5 101.906C93.4401 101.671 93.3502 101.439 93.2289 101.217C92.4452 99.7788 90.6444 99.248 89.2068 100.031C87.7692 100.815 87.2391 102.616 88.0229 104.054C88.1442 104.277 88.29 104.477 88.4549 104.655L85.7709 106.118L92.3345 118.161L104.048 111.778L102.456 108.858C102.406 108.889 102.354 108.92 102.301 108.948Z" fill="#9C5FFF"/>
</svg>
